# xmcd
#
# Track frame offsets:
#	150
#	9723
#	19511
#	30063
#	41144
#	50692
#	62465
#	73841
#	84079
#	92928
#	109391
#	119084
#	128415
#	136309
#
# Disc length: 1962 seconds
#
# Revision: 0
# Processed by: cddbd v1.5.1PL0 Copyright (c) Steve Scherf et al.
# Submitted via: audiograbber 1.83.01
#
DISCID=b607a80e
DTITLE=Viererspitz Musi - Es Lebe die Musik
DYEAR=1900
DGENRE=
TTITLE0=Fanclub-Polka
TTITLE1=Bleib Liaba Ledig
TTITLE2=Werdenfelser-Marsch
TTITLE3=Herzerl-Tanz
TTITLE4=Regina-Walzer
TTITLE5=Die Berge Die Sind Mein Zuhaus
TTITLE6=Meine Lausbuam
TTITLE7=Madl-Boarischer
TTITLE8=Da Gaudi Max
TTITLE9=Drei Mal Drei...
TTITLE10=Stadlfest-Polka
TTITLE11=Dingl,Dangl
TTITLE12=Im Musikantenstüberl
TTITLE13=Heya,Heya
EXTD=
EXTT0=
EXTT1=
EXTT2=
EXTT3=
EXTT4=
EXTT5=
EXTT6=
EXTT7=
EXTT8=
EXTT9=
EXTT10=
EXTT11=
EXTT12=
EXTT13=
PLAYORDER=
